<svg xmlns="http://www.w3.org/2000/svg" width="202" height="80" viewBox="0 0 202 80" fill="none">
<g clip-path="url(#clip0_1552_705)">
<path d="M197.535 79.6674C197.863 79.8503 198.278 79.7322 198.461 79.404L201.442 74.056C201.626 73.7279 201.508 73.3137 201.179 73.1308C200.851 72.948 200.437 73.0655 200.254 73.3937L197.603 78.1474L192.847 75.4982C192.519 75.3153 192.104 75.4334 191.921 75.7616C191.738 76.0897 191.856 76.5039 192.185 76.6868L197.535 79.6674ZM0.177641 43.358C-0.0106899 43.6832 0.100345 44.0993 0.425631 44.2876C0.750932 44.4758 1.1673 44.3649 1.35563 44.0397L0.177641 43.358ZM198.521 78.887C182.908 23.997 140.824 2.07884 98.9352 0.402066C78.0045 -0.435784 57.1098 3.77594 39.56 11.4479C22.0195 19.1157 7.75989 30.2675 0.177641 43.358L1.35563 44.0397C8.74642 31.2798 22.7315 20.2894 40.1054 12.6944C57.4697 5.10368 78.1592 0.932041 98.8808 1.76152C140.297 3.41941 181.79 25.0387 197.212 79.2593L198.521 78.887Z" fill="#114232" stroke="#114232"/>
</g>
<defs fill="#000000">
<clipPath id="clip0_1552_705" fill="#000000">
<rect width="202" height="80" fill="white"/>
</clipPath>
</defs>
</svg>