<?xml version="1.0" encoding="utf-8"?>
<!-- Generator: Adobe Illustrator 26.4.1, SVG Export Plug-In . SVG Version: 6.00 Build 0)  -->
<svg version="1.1" id="Layer_1" xmlns="http://www.w3.org/2000/svg" xmlns:xlink="http://www.w3.org/1999/xlink" x="0px" y="0px"
	 viewBox="0 0 1264.4 1596.9" style="enable-background:new 0 0 1264.4 1596.9;" xml:space="preserve">
<style type="text/css">
	.st0{fill:#EEA829;}
	.st1{fill:#EE8C2E;}
	.st2{fill:#E0CCDD;}
	.st3{fill:#F1F1F1;}
	.st4{fill:#E2AA49;}
	.st5{fill:#D38C53;}
	.st6{fill:#9C94A5;}
	.st7{fill:#E2AC4E;}
	.st8{fill:#BBA4B8;}
	.st9{fill:#427D86;}
	.st10{fill:#C66171;}
	.st11{fill:#519AA4;}
	.st12{fill:#F0BC5F;}
	.st13{fill:#3A182E;}
	.st14{fill:#ECA82E;}
	.st15{fill:#ECA830;}
	.st16{fill:#DE8441;}
	.st17{fill:#CC6831;}
	.st18{fill:#DF8442;}
	.st19{fill:#CD6B34;}
	.st20{fill:#E3923A;}
	.st21{fill:#F4CC85;}
	.st22{fill:#E3933C;}
	.st23{fill:#CC6933;}
	.st24{fill:#DF8542;}
	.st25{fill:#FEFDFD;}
	.st26{fill:#F4CB81;}
	.st27{fill:#D4586E;}
</style>
<path class="st14" d="M910.7,1267.4l-0.5,0.4c0,0-0.6-0.3-0.6-0.3c-1.3,0.8-2.6,1.7-4,2.5c0,0,0.2-0.1,0.2-0.1
	c-2.3-0.1-4.3,0.3-5.3,2.7c0,0,0.2-0.1,0.2-0.1c-8.5,1.5-17.7,1.1-23.3,9.5c-36.2,7.5-71.6,18.7-108.8,21.5
	c-44.8,3.4-89.2,3.3-133.7-4.4c-38.5-6.6-75.1-19.3-111.8-31.9c-5.9-5.1-12.8-8.3-20.4-10.2c-16.8-8.9-32.1-20.7-50.7-25.9
	c-4.5-10-14.5-12.9-23-17.6c-3.5-4.4-6.5-9.4-13-10c-1.4-1.6-2.5-3.4-4.1-4.6c-35.3-28-67.1-59.7-92.7-96.7
	c-21.4-30.9-38-64.8-52.9-99.4c-14-32.7-26-66-32.9-101c-4.3-21.5-8.8-43-8.6-65.1c0-5.9-0.4-13.4-4.6-16.3
	c-4.2-2.9-7.8,4.8-12.3,6.9c-4.5,2.1-8.1,6.1-12.3,8.8c-13.9,8.7-25,21.2-40,28.5c-3.7-22.2-2.8-44.4,0.7-66.5
	c14.9-7.2,26.7-18.8,40.7-27.4c8.3-5.1,16.1-10.8,23.8-16.7c7.5-5.6,9.5-15.3,5.4-21.5c-4.4-6.7-9.3,3.1-14.4,4.7
	c-1.9,0.6-3.3,2.6-5.1,3.7c-16.6,10.7-30,25.8-48.1,34.4c-0.3-10.5,1.5-20.7,4.8-30.7c2.3-0.9,4.9-1.5,6.8-2.9
	c19.4-14.2,38.7-28.6,58.1-42.9c5.2-3.8,7.3-9.4,8.6-15.1c12.6-52.3,32.9-101.2,61.1-147c27.6-44.8,62.8-82.7,101.9-117.5
	c11.2-10,25.9-16,34-29.4c0,0,0.9,0.2,0.9,0.2c1.3-0.9,2.7-1.9,4-2.8c89.6-54.3,185.4-86.2,291.5-81.8c4.6,0.2,9.4,1.3,13.5-1.9
	c7.4,1.6,14.7,4.2,22.2,4.8c58.5,5.1,113,23.3,165.8,47.9c29.3,13.6,54.7,33.7,82.8,49.2c7.3,10.7,18.7,17.1,28,25.6
	c92.1,83.3,145.9,186.7,163.7,309.3c11.7,80.9,2.4,159.7-24.2,236.8c-1.1,3.1-1.3,6.6-2,9.9c-2.1,3.6-4.7,7.1-6.2,11
	c-13.2,35-32,67-52.5,98.1c-7.4,11.2-17.9,20.3-22.5,33.3c-5,0.3-6.8,4.6-9.5,7.7c-47.6,54.5-104.6,96.5-170.2,126.9
	c-1.5,0.7-3.2,0.7-4.9,1.1C913.3,1265.8,912,1266.6,910.7,1267.4z M887.6,1108.7l-0.3,0.1c4,0.3,7.9,0.5,7.8-5.2l-0.1,0.2
	c4.5,0.8,8.3-1.1,12-3.2c47-26.6,85.1-62.8,114-108.1c47.7-74.8,66.1-156.1,53.2-244.7c-11.8-81-46.6-149.6-104-207.1
	c-20.4-20.4-43.8-37.3-69.1-51.4c-48-26.8-98.8-43.8-154.3-45.4c-7.6-0.7-15.1-2.2-22.7-1.9c-61.6,2.3-119.6,17.2-173.7,47.6
	C428.9,558,356.9,705.5,378.5,843.4c22.5,143.5,122.6,257.1,267.7,292.8c54.6,13.4,109.4,16.2,163.9,0.2c23-6.8,45.6-14.9,68.4-22.4
	c1.5-0.9,2.9-1.9,4.4-2.8c0,0,0.8,0.3,0.8,0.3C885,1110.5,886.3,1109.6,887.6,1108.7z"/>
<path class="st15" d="M97.6,695.7c-11.2,1-19.5-4.8-26.8-12.2c-32.6-33.4-48.2-74.5-52.1-120.1c-4.4-51.3,8.4-98.5,37.1-141.2
	c4.6-6.8,6.1-12.6,3.5-21.1c-7-22.3,13.3-43.5,36.2-37.6c9.8,2.5,16.8,0.4,24.8-4.5c35.1-21.6,72.8-34.1,114.8-30
	c6.2,5.7,13.2,10.8,18.3,17.4c9.5,12.1,21.9,24.1,19.2,41.1c-3.7,23.5-12.5,45.1-27.9,64.1c-5.9,7.3-15.3,12.4-17.3,22.7
	c-7.1,3.8-9.9,11.4-15.2,16.8c-37.6,38.5-71.7,80-99.9,125.8C97.8,640.6,81,665.5,97.6,695.7z M41.3,513.2c0,2.5-0.1,5.1,0,7.6
	c0.6,10.6,6.1,17.7,16.6,19.4c9.8,1.6,17.5-3.8,19-12.9c3.4-20.3,12.6-38.4,19.6-57.3c2.8-7.5-0.4-14.3-6.4-19.3
	c-5.6-4.6-11.9-6.1-18.9-3c-6,2.7-10.6,7.2-13.9,12.6C47.6,476.6,42.1,494.2,41.3,513.2z M87.3,578c-0.2-13.4-8.3-22.1-20.7-22.1
	c-12.6,0-23.3,11.1-22.8,23.8c0.4,11.5,11.2,22.2,22,21.9C77.2,601.3,87.5,590,87.3,578z"/>
<path class="st14" d="M713.5,240.1c-2.8-6.8-1.3-13.3,1.5-19.6c27.5-61,74.9-95.5,140.6-106c33.4-5.3,65.9-1.9,97.8,8.2
	c5.6,1.8,9.7,1.7,15.1-1.8c14.9-9.8,34.3-0.8,36.3,17c0.8,7.6,4.7,11,9.9,14.8c20.4,14.7,38.8,31.3,51.6,53.4
	c-0.1,5.1,0.3,10.2-0.3,15.3c-4.1,35.7-7.2,40.7-35.9,53.1c-17.4,7.5-34.9,2.7-51.2-0.3c-34-6.3-67.1-16.9-100.8-24.9
	c-10.2-2.4-19.9-9.8-31.3-4.5c-1.7-0.1-3.3-0.1-5-0.2c-0.4-3.3-2.2-4.8-5.5-4.5c-14.8,0.1-28.8-5.5-43.4-6.6
	C766.2,231.2,738.8,222.9,713.5,240.1z"/>
<path class="st16" d="M155.7,864.6c14.9-7.2,26.1-19.7,40-28.5c4.3-2.7,7.8-6.7,12.3-8.8c4.5-2.1,8-9.8,12.3-6.9
	c4.2,2.9,4.6,10.4,4.6,16.3c-0.2,22.1,4.4,43.6,8.6,65.1c6.9,35,18.9,68.4,32.9,101c14.8,34.6,31.5,68.4,52.9,99.4
	c25.6,37,57.4,68.7,92.7,96.7c1.6,1.3,2.8,3.1,4.1,4.6c-12.2,8.6-24.7,17-36.6,26.1c-6.8,5.2-14.9,10-14.8,20.4
	c-37.7-24.5-70.8-54.7-97.3-90.5c-63.6-85.7-104.1-181-111.8-288.7C155.4,868.8,155.6,866.7,155.7,864.6z"/>
<path class="st17" d="M713.5,240.1c25.2-17.2,52.7-8.9,79.5-6.8c14.6,1.2,28.6,6.7,43.4,6.6c0.5,3.1,2.1,4.9,5.5,4.5
	c1.7,0.1,3.3,0.1,5,0.2c32,13.1,65.2,23.4,96.4,38.5c50.6,24.6,105.6,42.5,137.7,94.1c-3.7,19.3-21.6,31.2-44.7,29.8
	c-7.2-0.4-14.3-1.2-21.5-1.9c-28.2-15.5-53.5-35.6-82.8-49.2c-52.8-24.5-107.4-42.8-165.8-47.9c-7.5-0.6-14.8-3.2-22.2-4.8
	c-10.8-7.4-21.5-14.8-27.5-27.1C710.7,264.6,707.5,252.7,713.5,240.1z"/>
<path class="st17" d="M97.6,695.7c-16.6-30.3,0.2-55.1,14.8-78.8c28.2-45.8,62.3-87.3,99.9-125.8c5.3-5.4,8.2-13,15.2-16.8
	c3.8,0.1,6.1-2.5,8.6-4.8c15.4-13.8,30.2-28.4,46.5-41.1c24.9-19.4,49.4-41,84.9-35.6c8.8,6,6,14.2,4.2,22.2
	c-0.6,2.9-4.2,5.1-1.7,8.6c-5.2,4.2-10.4,8.5-15.7,12.6c-35,27.4-66.8,58-94.6,92.8c-31.9,40-54.7,85.1-75.6,131.3
	c-7.9,1.5-12.8,7.8-18.8,12.2c-14.3,10.8-30.2,18.2-47,24C111.1,699.1,104.4,699.5,97.6,695.7z"/>
<path class="st18" d="M1099.2,1129.3c4.6-13.1,15.1-22.1,22.5-33.3c20.5-31.1,39.3-63.1,52.5-98.1c1.5-3.9,4.1-7.3,6.2-11
	c17.4,12.1,34.8,24.3,52.3,36.1c7.7,5.2,9.1,12.8,9.2,21.1c0.7,53.2-26.5,90.5-68.4,119c-7.9,5.4-16.1,5.5-24.9-0.3
	C1132,1151.9,1114.6,1142,1099.2,1129.3z"/>
<path class="st14" d="M754.7,1330.9c0.6,28.8,3.8,57.6,2.8,86.5c-17-4.3-33-11.8-50.8-14.2c-33.7-4.4-66.3-4.2-97,13
	c-6.9,3.9-11.7,11.4-20.6,11.8c-4.5-29.7-3.9-59.5-2.4-89.4c19-11.2,38.8-19.4,61.5-20.9C684.7,1315.4,719.6,1323.1,754.7,1330.9z"
	/>
<path class="st16" d="M184.1,660.4c20.9-46.2,43.7-91.3,75.6-131.3c27.8-34.8,59.6-65.4,94.6-92.8c5.3-4.1,10.5-8.4,15.7-12.6
	c21.4-11.3,41.1-25.6,64.1-33.9c-8.1,13.4-22.8,19.4-34,29.4c-39.2,34.8-74.4,72.7-101.9,117.5c-28.2,45.8-48.5,94.8-61.1,147
	c-1.4,5.7-3.4,11.3-8.6,15.1c-19.4,14.3-38.7,28.7-58.1,42.9c-1.9,1.4-4.5,1.9-6.8,2.9c2.3-21.8,8.7-42.7,15.1-63.5
	C180.7,674.2,184.4,667.8,184.1,660.4z"/>
<path class="st19" d="M754.7,1330.9c-35.1-7.8-70-15.5-106.4-13c-22.7,1.5-42.4,9.7-61.5,20.9c-39.1-6.8-78.1-14.1-114.6-30.7
	c-0.6-6,2.9-8.7,7.5-11.7c14.7-9.5,31.2-16.2,43.6-29.2c36.7,12.6,73.3,25.2,111.8,31.9c44.4,7.7,88.9,7.8,133.7,4.4
	c37.3-2.8,72.6-14,108.8-21.5c0,0.9,0,1.9,0.1,2.8C839.4,1307.6,797.7,1321,754.7,1330.9z"/>
<path class="st20" d="M1081.1,377.4c-32.1-51.6-87.2-69.6-137.7-94.1c-31.2-15.2-64.4-25.4-96.4-38.5c11.4-5.3,21.1,2.1,31.3,4.5
	c33.7,8,66.8,18.6,100.8,24.9c16.3,3,33.8,7.8,51.2,0.3c28.7-12.4,31.8-17.3,35.9-53.1c0.6-5,0.2-10.2,0.3-15.3
	C1103.3,250.2,1110.5,334,1081.1,377.4z"/>
<path class="st21" d="M589.1,1428.1c8.8-0.5,13.7-8,20.6-11.8c30.7-17.3,63.3-17.5,97-13c17.8,2.3,33.8,9.8,50.8,14.2
	c1.1,10-5.7,15.7-12.2,20.9c-36.1,29.1-109.9,30.4-147.3,2.8C593.4,1437.8,589.1,1434.5,589.1,1428.1z"/>
<path class="st22" d="M367.5,392.8c-35.5-5.5-60,16.1-84.9,35.6c-16.3,12.7-31.1,27.3-46.5,41.1c-2.5,2.3-4.8,4.9-8.6,4.8
	c2-10.4,11.4-15.4,17.3-22.7c15.3-19.1,24.1-40.6,27.9-64.1c2.7-17-9.7-28.9-19.2-41.1c-5.1-6.6-12.1-11.6-18.3-17.4
	c42.5-0.3,78.8,16.1,111.4,42.1C354.3,377.3,362.2,383.9,367.5,392.8z"/>
<path class="st23" d="M452,1231.1c18.6,5.3,33.9,17,50.7,25.9c-15.9,18-36.4,29.3-57.8,39.2c-17.9-6.1-34.1-15.3-49.6-26
	c0.3-4.2,3.1-6.2,6.2-8.8C416.9,1248.7,434.5,1240,452,1231.1z"/>
<path class="st24" d="M158.7,775.2c18.1-8.6,31.5-23.6,48.1-34.4c1.8-1.1,3.2-3.1,5.1-3.7c5-1.7,10-11.4,14.4-4.7
	c4.1,6.3,2.1,15.9-5.4,21.5c-7.7,5.8-15.6,11.6-23.8,16.7c-14,8.6-25.8,20.2-40.7,27.4C155.8,790.3,155.6,782.6,158.7,775.2z"/>
<path class="st16" d="M452,1231.1c-17.5,9-35.2,17.7-50.5,30.4c-3.1,2.5-5.9,4.6-6.2,8.8c-7-2.9-13.4-6.9-18.9-12.2
	c14-10.9,28.2-21.6,41.9-32.9c4-3.3,10.6-4.7,10.6-11.7C437.6,1218.2,447.6,1221,452,1231.1z"/>
<path class="st23" d="M429,1213.5c-0.1,7-6.6,8.4-10.6,11.7c-13.7,11.2-27.9,21.9-41.9,32.9c-4.8-1.4-8.6-4.2-11.8-8
	c-0.2-10.5,8-15.3,14.8-20.4c11.9-9.1,24.4-17.4,36.6-26.1C422.5,1204.1,425.6,1209,429,1213.5z"/>
<path class="st16" d="M445,1296.2c21.4-9.9,41.9-21.2,57.8-39.2c7.6,1.9,14.5,5.1,20.4,10.2c-12.3,13-28.9,19.7-43.6,29.2
	c-4.7,3-8.2,5.7-7.5,11.7C462.3,1305.9,453.3,1301.8,445,1296.2z"/>
<path class="st24" d="M877.5,1284.8c0-0.9,0-1.9-0.1-2.8c5.7-8.4,14.8-8.1,23.3-9.5C894.1,1278.6,886.7,1283.4,877.5,1284.8z"/>
<path class="st24" d="M900.5,1272.6c0.9-2.5,3-2.8,5.3-2.7C904.7,1271.9,902.8,1272.7,900.5,1272.6z"/>
<path class="st16" d="M439,387.2c-1.3,0.9-2.7,1.9-4,2.8C436.3,389.1,437.7,388.1,439,387.2z"/>
<path class="st24" d="M910.7,1267.4c1.3-0.8,2.6-1.6,4-2.4C913.3,1265.8,912,1266.6,910.7,1267.4z"/>
<path class="st24" d="M905.6,1270c1.3-0.8,2.6-1.6,4-2.5C908.3,1268.3,907,1269.2,905.6,1270z"/>
<path class="st25" d="M883.7,1111.4c0,0-0.8-0.3-0.8-0.3c-2.1,0-3.6,0.9-4.4,2.8c-22.8,7.5-45.4,15.6-68.4,22.4
	c-54.6,16-109.3,13.3-163.9-0.2C501.2,1100.5,401,986.9,378.5,843.4C356.9,705.5,428.9,558,550.6,489.5
	c54.1-30.4,112.1-45.3,173.7-47.6c7.5-0.3,15.1,1.2,22.7,1.9c39.8,10.4,77.4,25.1,112,48.4c22.2,15,43.6,30.5,62.4,49.5
	c59.6,60.1,95.2,132.6,107.7,215.8c12,79.7,3.8,157.1-33.6,230c-24.1,46.9-57.5,85.6-100.4,116.2c0,0,0.1-0.2,0.1-0.2
	c-3.4,0.5-6,2.2-7.8,5.2c0,0,0.3-0.1,0.3-0.1C886.3,1109.6,885,1110.5,883.7,1111.4z M733.6,864c16.3-0.5,34.3-9,40.9-28.6
	c5.7-17,16.7-23.8,31.4-29.1c7.2-2.6,14-6.1,20.9-9.3c18.8-8.8,37.8-17.4,56.4-26.7c10.7-5.4,14.5-15.6,10.6-24.2
	c-3.9-8.6-14-11.8-25.4-7.9c-2.4,0.8-4.7,1.9-7,3.1c-24.1,11.6-48.4,22.9-72.1,35.2c-10.6,5.5-19.3,9.2-28.3-2.5
	c-3.8-4.8-10.2-7.6-16.5-9.1c-6.3-1.5-8.8-5.4-9.4-11.8c-5.1-53.2-10.4-106.4-15.8-159.6c-2.4-23.2-5-46.4-7.8-69.6
	c-1.3-10.4-6.8-18.2-17.9-17.9c-11.2,0.2-16.2,8.3-16.9,18.8c-0.5,7.2-0.9,14.5-0.1,21.6c7.6,70.9,15.4,141.7,23.6,212.5
	c0.8,7.2-0.6,11.6-6,16.4c-16.8,14.8-21.9,36.7-14.3,56.7C687.1,851,706.7,863.8,733.6,864z"/>
<path class="st24" d="M895.1,1103.8c42.9-30.6,76.3-69.3,100.4-116.2c37.4-72.9,45.6-150.3,33.6-230
	c-12.5-83.2-48.1-155.7-107.7-215.8c-18.8-18.9-40.2-34.5-62.4-49.5c-34.5-23.3-72.2-38-112-48.4c55.4,1.6,106.3,18.6,154.3,45.4
	c25.2,14.1,48.7,31,69.1,51.4c57.4,57.5,92.2,126.1,104,207.1c12.9,88.7-5.4,169.9-53.2,244.7c-28.9,45.3-67,81.6-114,108.1
	C903.4,1102.7,899.6,1104.6,895.1,1103.8z"/>
<path class="st24" d="M887.4,1108.8c1.7-3,4.4-4.7,7.8-5.2C895.2,1109.3,891.4,1109.1,887.4,1108.8z"/>
<path class="st24" d="M883.7,1111.4c1.3-0.9,2.6-1.8,4-2.6C886.3,1109.6,885,1110.5,883.7,1111.4z"/>
<path class="st24" d="M878.5,1113.9c0.8-1.9,2.3-2.8,4.4-2.8C881.5,1112,880,1113,878.5,1113.9z"/>
<path class="st26" d="M41.3,513.2c0.8-19,6.2-36.6,16-52.8c3.3-5.4,7.9-9.9,13.9-12.6c7-3.1,13.4-1.6,18.9,3c6,5,9.1,11.8,6.4,19.3
	c-7,18.9-16.2,37-19.6,57.3c-1.5,9.1-9.2,14.5-19,12.9c-10.5-1.7-16-8.8-16.6-19.4C41.2,518.3,41.3,515.7,41.3,513.2z"/>
<path class="st26" d="M87.3,578c0.2,12-10.1,23.3-21.4,23.6c-10.9,0.2-21.6-10.5-22-21.9c-0.5-12.6,10.2-23.8,22.8-23.8
	C79,555.9,87.2,564.6,87.3,578z"/>
<path class="st20" d="M842,244.5c-3.4,0.3-5-1.4-5.5-4.5C839.8,239.7,841.6,241.2,842,244.5z"/>
<path class="st27" d="M733.6,864c-26.9-0.3-46.5-13.1-53.8-32.1c-7.6-20-2.5-41.9,14.3-56.7c5.5-4.8,6.9-9.2,6-16.4
	c-8.2-70.8-15.9-141.6-23.6-212.5c-0.8-7.1-0.4-14.4,0.1-21.6c0.8-10.4,5.8-18.5,16.9-18.8c11.1-0.2,16.6,7.6,17.9,17.9
	c2.8,23.2,5.5,46.4,7.8,69.6c5.4,53.2,10.7,106.4,15.8,159.6c0.6,6.3,3.1,10.3,9.4,11.8c6.3,1.5,12.8,4.3,16.5,9.1
	c9.1,11.6,17.7,8,28.3,2.5c23.7-12.3,48-23.5,72.1-35.2c2.3-1.1,4.6-2.2,7-3.1c11.3-3.8,21.5-0.6,25.4,7.9c3.9,8.6,0,18.9-10.6,24.2
	c-18.6,9.4-37.5,17.9-56.4,26.7c-6.9,3.2-13.8,6.8-20.9,9.3c-14.7,5.3-25.6,12-31.4,29.1C767.9,855,749.9,863.6,733.6,864z"/>
</svg>
