<?xml version="1.0" encoding="utf-8"?>
<!-- Generator: Adobe Illustrator 26.4.1, SVG Export Plug-In . SVG Version: 6.00 Build 0)  -->
<svg version="1.1" id="Layer_1" xmlns="http://www.w3.org/2000/svg" xmlns:xlink="http://www.w3.org/1999/xlink" x="0px" y="0px"
	 viewBox="0 0 1264.4 1596.9" style="enable-background:new 0 0 1264.4 1596.9;" xml:space="preserve">
<style type="text/css">
	.st0{fill:#EEA829;}
	.st1{fill:#EE8C2E;}
	.st2{fill:#E0CCDD;}
	.st3{fill:#F1F1F1;}
	.st4{fill:#E2AA49;}
	.st5{fill:#D38C53;}
	.st6{fill:#9C94A5;}
	.st7{fill:#E2AC4E;}
	.st8{fill:#BBA4B8;}
	.st9{fill:#427D86;}
	.st10{fill:#C66171;}
	.st11{fill:#519AA4;}
	.st12{fill:#F0BC5F;}
	.st13{fill:#3A182E;}
	.st14{fill:#ECA82E;}
	.st15{fill:#ECA830;}
	.st16{fill:#DE8441;}
	.st17{fill:#CC6831;}
	.st18{fill:#DF8442;}
	.st19{fill:#CD6B34;}
	.st20{fill:#E3923A;}
	.st21{fill:#F4CC85;}
	.st22{fill:#E3933C;}
	.st23{fill:#CC6933;}
	.st24{fill:#DF8542;}
	.st25{fill:#FEFDFD;}
	.st26{fill:#F4CB81;}
	.st27{fill:#D4586E;}
</style>
<path class="st3" d="M847.6,96.1c3.8-0.4,7.8-0.1,11.4-1.2c19.2-5.9,20.4-6.5,27.5,11.8c13.8,35.5,27.6,71,40.9,106.7
	c8.9,23.9,19,47.6,28,71.5c8.5,22.6,18.1,44.9,25.5,68c6.5,20.4,16.9,39.5,23.5,59.9c7.2,22.3,17,43.4,24.9,65.4
	c7.7,21.4,16.5,42.6,24,64c8.2,23.3,17.5,46.1,26,69.2c21.2,57.9,44.2,115,66.3,172.6c13.8,36.1,27.1,72.4,40.9,108.4
	c12.6,32.9,25.7,65.5,38.1,98.5c7.2,19.1,13.5,38.5,22.1,57c1.6,3.3-0.4,5.7-1.4,8.4c-24.2,5.2-46.2,16.4-69,25.3
	c-37.6,14.7-74.6,31-112.3,45.4c-45.5,17.3-90.7,35.6-135.8,53.9c-36.7,14.9-73.3,29.7-110.1,44.3c-44.1,17.6-88.3,35-132.6,52.4
	c-28.9,11.4-57.9,22.4-86.7,33.8c-29.6,11.7-59.2,23.7-88.8,35.5c-2.6-0.5-4.3-1.6-5.3-4.6c-7-20.5-13.7-41.1-21.7-61.1
	c-16.4-41-30.4-82.8-46.3-124c-12.6-32.7-23.7-66.1-36-99.1c-18-48.2-34.7-96.8-52.2-145.1c-13.7-37.6-27.9-75-41.6-112.7
	c-14.7-40.6-28.9-81.5-43.7-122.1c-13.4-36.7-28.2-72.8-40.8-109.8c-10.9-32.2-23-63.9-34.4-95.9c-11-30.8-22-61.7-33.3-92.5
	c-11.9-32.4-24.2-64.6-36.3-96.9c0.7-8,5-11.1,13.1-12.7c17.5-3.3,34.7-7.9,51.9-12.3c41.5-10.6,82.9-21.4,124.9-29.7
	c0.2,22.3,5.8,43.1,16.6,62.6c7.1,10.2,16.7,6.2,25.5,3.9c28.8-7.6,57.6-14.8,86.2-23.4c33-9.9,66.5-17.8,99.8-26.8
	c27.5-7.5,54.8-15.4,82.2-23c29.1-8.1,58.2-15.9,87.3-24.1c8.2-2.3,11.6-7.5,8.2-16.6c-6-16.4-13.4-32.1-24-46
	c30.5-7.1,61.3-13,91.3-21.7C803.3,107,826.2,104.4,847.6,96.1z M856,675c-10.7-0.8-17.4,5-20.8,14c-3.5,9.2,0.9,16.6,8.7,21.9
	c12.4,8.5,26.9,12.6,40.5,18.4c23.4,9.9,30.4,7.3,42.1-16.3c18.2-36.7,30.8-75.7,45.4-113.8c4.6-11.9,0-22-9.5-25.7
	c-9.7-3.8-19.5,0.7-24.4,12.6c-12.6,30.7-25.4,61.4-36.6,92.6c-4.3,12.1-9.9,10.5-17.9,5.9C874.9,679.5,866,675.7,856,675z
	 M1006.9,986.1c5.9,1,12.3-1.5,15.2-6.5c4.8-8.5,11.7-15.7,15.2-25.1c12.5-33.5,25.5-66.9,38.2-100.3c5.4-14.1,2.1-24.9-8.7-29.6
	c-10.1-4.3-19.1,0.8-25.1,15.3c-10.1,24.4-19.9,49-29.3,73.7c-11.8,31.2-5.1,29.8-38,16.4c-0.4-0.2-0.8-0.4-1.2-0.6
	c-14.6-6.8-26.8-3.1-32.3,9.7c-4.6,10.7,1.8,22.7,15.4,28c9.6,3.7,19,7.5,28.1,12.3C991,982.8,998,987.1,1006.9,986.1z M807.8,484.5
	c7.7,1.1,14.1-2.6,18.1-7.9c6-8,11.3-17,15.1-26.3c12-29.5,23.2-59.4,34.6-89.2c1.7-4.4,2.8-8.9,4.2-13.4c3.3-11-1.2-20.8-11.5-25
	c-7.4-3-18.5,2.5-22.4,12.2c-11.8,29.2-23.4,58.5-34.4,88.1c-5.8,15.6-7.3,16.5-23,10.1c-8.2-3.3-16.1-7.7-25.5-7.7
	c-10.4,0-17.4,5.2-20.5,14.3c-3.1,9.2,1.4,16.3,9.1,21.9c6.7,4.8,14.7,6.7,21.9,10.1C784.3,476.9,795.2,483.4,807.8,484.5z"/>
<path class="st4" d="M308.3,228.7c-42,8.3-83.4,19.1-124.9,29.7c-17.2,4.4-34.4,9-51.9,12.3c-8.1,1.5-12.4,4.6-13.1,12.7
	c-12.2,13.1-17.4,29.5-21.9,46.2c-0.3,1.2,1.3,3,1.9,4.5c12.9,35.4,25.9,70.7,38.6,106.2c8.5,23.5,16.3,47.2,24.9,70.7
	c11.9,32.2,24.7,64.1,36.5,96.3c17.8,48.7,35,97.5,52.5,146.3c9.2,25.5,18.3,51,27.7,76.5c10.9,29.8,22,59.6,33,89.3
	c5.1,13.9,10.6,27.7,15.5,41.6c10.4,29.5,20.2,59.3,30.9,88.8c11.5,31.4,24,62.5,35.6,93.9c11.6,31.5,22.6,63.3,34,94.8
	c11.5,31.9,22.8,64,34.9,95.7c7.8,20.5,13.4,41.8,24.3,61.1c11-3.1,21.3-8.2,32-11.9c38.2-13,74.9-29.4,112.5-43.7
	c44.4-16.9,88-36.2,132.2-53.8c49.2-19.6,98.8-38.1,147.8-58c32.6-13.2,65.5-25.7,97.8-39.9c27.2-12,55.6-21.3,83.2-32.3
	c37.5-14.9,74.5-31.1,112.4-44.8c14.7-5.3,25.7-11.6,30-27c7.5,15.7,16.1,31.1,17,48.9c0.5,11.3,1.5,23.1-9.4,31.2
	c-9.8,5.8-19.1,12.9-29.5,17.3c-39,16.4-78.5,31.8-117.7,47.7c-38.7,15.8-77.2,31.9-115.9,47.6c-26,10.5-52.3,20.2-78.3,30.7
	c-27.9,11.3-55.5,23.4-83.3,34.8c-31.1,12.8-62.7,24.6-93.8,37.4c-32,13.2-63.8,27-96.1,39.6c-32.2,12.6-63.3,27.8-96.7,37.9
	c-34.2,10.3-81.7-6.3-99-35.1c-21.1-35.2-31.3-74.8-45.8-112.6c-8.9-23.4-15.9-47.6-25.2-70.8c-8.5-21.2-15.9-42.7-23.6-64.1
	c-4.3-11.8-6.3-24.7-12.2-35.6c-8.6-16.1-11.4-34-18.6-50.4c-5.4-12.3-8.6-25.5-13.3-38.1c-11.8-32.1-24.1-64.1-35.8-96.2
	c-8.6-23.5-16.4-47.2-24.9-70.7c-8.1-22.2-17.3-43.9-24.8-66.3c-12.1-36.1-26.5-71.3-39.1-107.2c-10.3-29.3-20.2-58.6-31.5-87.5
	c-10.5-26.7-18.7-54.4-28.3-81.5c-11-31-22.2-61.9-34.1-92.6c-10.1-26.1-18.1-53.1-29.9-78.6c-10.7-23.4-24-46.4-19.1-74
	c9.4-35.6,34-56.4,68.1-65.3c59-15.3,118.3-29.2,177.7-42.7c18.7-4.3,37.6-7.6,56.1-12.5C317.8,191.7,308.5,208.5,308.3,228.7z"/>
<path class="st5" d="M26,295.6c-4.9,27.5,8.4,50.6,19.1,74c11.8,25.6,19.7,52.5,29.9,78.6c11.9,30.7,23,61.6,34.1,92.6
	c9.7,27.1,17.8,54.7,28.3,81.5c11.4,28.9,21.2,58.3,31.5,87.5c12.6,35.9,27,71.1,39.1,107.2c7.5,22.4,16.7,44.1,24.8,66.3
	c8.5,23.5,16.3,47.2,24.9,70.7c11.7,32.1,24,64.1,35.8,96.2c4.6,12.6,7.9,25.8,13.3,38.1c7.2,16.4,10.1,34.3,18.6,50.4
	c5.8,10.9,7.9,23.8,12.2,35.6c7.7,21.4,15.2,42.9,23.6,64.1c9.3,23.2,16.2,47.4,25.2,70.8c14.5,37.8,24.6,77.5,45.8,112.6
	c17.3,28.8,64.7,45.4,99,35.1c33.3-10,64.4-25.3,96.7-37.9c32.3-12.6,64.1-26.4,96.1-39.6c31.1-12.8,62.6-24.6,93.8-37.4
	c27.8-11.5,55.4-23.5,83.3-34.8c26-10.5,52.3-20.2,78.3-30.7c38.7-15.7,77.2-31.9,115.9-47.6c39.2-16,78.7-31.4,117.7-47.7
	c10.4-4.4,19.7-11.4,29.5-17.3c-2.2,20.1-17.7,28.8-33.1,35.6c-39,17.1-78.6,32.7-118,48.9c-44.6,18.3-89.1,36.7-133.7,54.8
	c-35.5,14.5-71.3,28.5-106.8,43c-59.5,24.4-118.8,49.2-178.4,73.4c-43.9,17.9-87.7,35.9-132.1,52.4c-13.3,4.9-27.3,10-42.1,10
	c-39.6,0-68.1-17.3-85.5-53.2c-20.2-41.5-32.9-85.8-49-128.8c-18.4-49.2-36.1-98.6-54-147.9c-10.2-28.1-20.1-56.3-30.2-84.4
	c-13.8-38.5-27.7-76.9-41.5-115.4c-17.6-48.9-34.9-98-52.6-146.8c-19.3-53.4-39.1-106.7-58.4-160.1c-19.3-53.3-37.5-107-57.5-160
	c-16.6-44.2-31.8-88.9-51.9-131.8C8.1,333.7,13.6,313.5,26,295.6z"/>
<path class="st6" d="M1234.7,1083.8c-4.4,15.4-15.3,21.7-30,27c-37.9,13.6-74.9,29.9-112.4,44.8c-27.7,11-56,20.3-83.2,32.3
	c-32.3,14.2-65.2,26.7-97.8,39.9c-49.1,19.9-98.7,38.4-147.8,58c-44.2,17.6-87.7,36.9-132.2,53.8c-37.6,14.3-74.4,30.7-112.5,43.7
	c-10.7,3.6-21,8.8-32,11.9c0.5-1.6,0.9-3.2,1.6-4.7c6.7-14.7,17.9-27.2,21.7-43.4c29.6-11.8,59.1-23.8,88.8-35.5
	c28.9-11.4,57.8-22.4,86.7-33.8c44.2-17.4,88.4-34.8,132.6-52.4c36.7-14.6,73.4-29.5,110.1-44.3c45.1-18.3,90.2-36.6,135.8-53.9
	c37.7-14.3,74.7-30.7,112.3-45.4c22.8-8.9,44.8-20.1,69-25.3C1240.9,1065.2,1236.9,1074.1,1234.7,1083.8z"/>
<path class="st7" d="M651.5,108.5c-2.2-3.2-13.2,0.2-14.6-4.2c35.7-8.4,76.9-18.6,112.6-26.9c17.9-4.1,35.7-8.3,53.8-11.5
	c22.1-3.9,39.4,8.3,44.3,30.2c-21.4,8.2-44.3,10.9-66.3,17.3c-30,8.8-60.8,14.6-91.3,21.7C678.5,124.4,666.3,114.6,651.5,108.5z"/>
<path class="st8" d="M510,1347c-3.8,16.2-15,28.7-21.7,43.4c-0.7,1.5-1,3.2-1.6,4.7c-10.8-19.3-16.5-40.6-24.3-61.1
	c-12.1-31.7-23.4-63.7-34.9-95.7c-11.4-31.6-22.3-63.3-34-94.8c-11.6-31.4-24.1-62.5-35.6-93.9c-10.7-29.4-20.5-59.2-30.9-88.8
	c-4.9-14-10.4-27.7-15.5-41.6c-11-29.8-22.1-59.5-33-89.3c-9.3-25.5-18.5-51-27.7-76.5c-17.5-48.8-34.7-97.6-52.5-146.3
	c-11.8-32.2-24.6-64.1-36.5-96.3c-8.7-23.4-16.5-47.2-24.9-70.7c-12.7-35.4-25.7-70.8-38.6-106.2c-0.6-1.6-2.2-3.3-1.9-4.5
	c4.5-16.7,9.7-33.1,21.9-46.2c12.1,32.3,24.4,64.5,36.3,96.9c11.3,30.7,22.2,61.6,33.3,92.5c11.5,32,23.5,63.7,34.4,95.9
	c12.6,36.9,27.4,73.1,40.8,109.8c14.8,40.6,29,81.5,43.7,122.1c13.7,37.6,27.9,75,41.6,112.7c17.5,48.3,34.3,96.9,52.2,145.1
	c12.3,32.9,23.4,66.3,36,99.1c15.9,41.2,29.9,83,46.3,124c8,20.1,14.7,40.7,21.7,61.1C505.7,1345.4,507.3,1346.5,510,1347z"/>
<path class="st9" d="M651.5,108.5c14.8,6,27,15.9,38.5,26.6c10.6,14,17.9,29.6,24,46c3.4,9.2,0,14.3-8.2,16.6
	c-29,8.3-58.2,16-87.3,24.1c-27.4,7.6-54.7,15.6-82.2,23c-33.2,9-66.8,16.9-99.8,26.8c-28.5,8.6-57.4,15.8-86.2,23.4
	c-8.8,2.3-18.4,6.4-25.5-3.9c13.4-12.8,31.3-15.2,47.9-19.8c36.8-10.2,73.6-20.4,109.4-34c34.1-12.9,67.7-27.2,100-43.8
	c19.3-9.9,39.3-20.3,53.1-38.6C645.5,141.2,653.9,126.8,651.5,108.5z"/>
<path class="st10" d="M856,675c10,0.7,18.8,4.6,27.4,9.5c8,4.6,13.5,6.3,17.9-5.9c11.2-31.2,24-61.9,36.6-92.6
	c4.9-11.9,14.7-16.3,24.4-12.6c9.5,3.7,14.1,13.8,9.5,25.7c-14.6,38.1-27.3,77.1-45.4,113.8c-11.7,23.6-18.7,26.2-42.1,16.3
	c-13.6-5.7-28.1-9.8-40.5-18.4c-7.8-5.4-12.2-12.7-8.7-21.9C838.6,680,845.3,674.1,856,675z"/>
<path class="st10" d="M1006.9,986.1c-8.9,1-15.9-3.3-22.5-6.7c-9.1-4.8-18.5-8.6-28.1-12.3c-13.6-5.3-20-17.2-15.4-28
	c5.5-12.9,17.7-16.5,32.3-9.7c0.4,0.2,0.8,0.4,1.2,0.6c32.9,13.4,26.2,14.8,38-16.4c9.4-24.7,19.2-49.2,29.3-73.7
	c6-14.5,15.1-19.6,25.1-15.3c10.8,4.6,14.1,15.5,8.7,29.6c-12.7,33.4-25.7,66.8-38.2,100.3c-3.5,9.4-10.4,16.5-15.2,25.1
	C1019.2,984.5,1012.8,987.1,1006.9,986.1z"/>
<path class="st10" d="M807.8,484.5c-12.6-1.1-23.4-7.7-34.3-12.9c-7.2-3.4-15.2-5.3-21.9-10.1c-7.7-5.6-12.2-12.7-9.1-21.9
	c3.1-9.1,10-14.3,20.5-14.3c9.4,0,17.3,4.4,25.5,7.7c15.8,6.4,17.2,5.5,23-10.1c11.1-29.5,22.6-58.8,34.4-88.1
	c3.9-9.7,15.1-15.2,22.4-12.2c10.3,4.2,14.8,14.1,11.5,25c-1.4,4.5-2.5,9-4.2,13.4c-11.4,29.8-22.6,59.6-34.6,89.2
	c-3.8,9.3-9.1,18.3-15.1,26.3C821.9,481.9,815.5,485.6,807.8,484.5z"/>
<path class="st11" d="M651.5,108.5c-2.2-3.2-41.5-11.6-63.6-9.1c-7.7,0.9-9.8-2.4-9.8-2.4c-2.9-2.1-8.4-30.2-9.6-33.3
	c-4.9-12.7-14-15.3-26.8-13.5c-46.9,6.7-93.4,15.9-139.9,24.8c-11.9,2.3-15.6,8.9-12.1,19c3.9,11.4,4.7,15.1,8.3,34.8
	c1.2,6.4-0.8,7.9-5.8,10.1c-22.6,10-44.8,20.7-64.4,36.1c-10,16.6-19.3,33.4-19.6,53.6c0.2,22.3,5.8,43.1,16.6,62.6
	c13.4-12.8,31.3-15.2,47.9-19.8c36.8-10.2,73.6-20.4,109.4-34c34.1-12.9,67.7-27.2,100-43.8c19.3-9.9,39.3-20.3,53.1-38.6
	C645.5,141.2,653.9,126.8,651.5,108.5z"/>
</svg>
