<svg width="95" height="120" viewBox="0 0 95 120" fill="none" xmlns="http://www.w3.org/2000/svg">
<path d="M22.653 75.0305C13.8322 68.4703 8.56529 59.7309 6.59676 48.955C5.70266 44.078 5.69515 39.1861 6.66438 34.3392C8.0694 27.3131 11.0222 20.9858 15.6955 15.5077C21.1879 9.06771 28.0552 4.75436 36.1997 2.52253C40.0015 1.47801 43.901 0.93696 47.8531 1.08725C52.4438 1.2676 56.9293 2.03409 61.2195 3.75492C62.3691 4.70927 63.6313 5.51333 64.7208 6.55785C65.9605 7.75267 67.1626 8.97754 68.2521 10.3001C72.685 15.673 75.5777 21.7748 77.0428 28.6131C77.6364 31.3634 78.1022 34.1062 78.0045 36.8941C77.8693 40.7716 77.1705 44.5815 76.0736 48.3012C74.7362 52.84 72.655 57.0181 69.86 60.8505C66.0431 66.0957 61.242 70.2287 55.4943 73.197C50.0094 76.0299 44.164 77.5554 37.9579 77.6681C33.6301 77.7433 29.385 77.2999 25.2376 76.045C24.3435 75.7745 23.487 75.4438 22.653 75.0305Z" fill="#EEA829"/>
<path d="M22.6531 75.0331C24.4413 75.3487 26.1168 76.0476 27.8899 76.4458C29.8059 76.8817 31.7368 77.2273 33.6753 77.3326C37.7701 77.5655 41.865 77.3701 45.8922 76.4233C52.1058 74.958 57.6808 72.2076 62.6021 68.1347C68.425 63.3104 72.5799 57.3213 75.1645 50.22C76.4343 46.7182 77.0129 43.0662 77.5388 39.3991C78.1248 35.2961 77.4261 31.3284 76.4644 27.3532C75.2998 22.589 73.474 18.1103 70.7091 14.0675C68.2897 10.5281 65.5699 7.22924 62.016 4.72689C61.6779 4.48643 61.3173 4.20839 61.2196 3.75C66.1259 5.49338 70.416 8.22116 74.3005 11.6779C79.9731 16.7352 83.7825 22.9722 85.9764 30.1787C88.9066 39.8349 88.3882 49.3483 84.3084 58.6063C81.6712 64.5879 77.8018 69.6752 72.7678 73.8383C69.8751 76.2279 66.6743 78.1592 63.2107 79.647C62.8876 79.7823 62.572 79.9476 62.2414 80.0979C62.3541 80.669 62.9777 80.7817 63.143 81.2476C63.2332 81.6534 62.9251 81.8338 62.6697 82.0066C60.4457 83.4569 58.1015 84.6743 55.607 85.5986C55.4342 85.6587 55.2614 85.6737 55.0886 85.5685C55.2915 84.6066 55.4643 83.6373 55.7047 82.6904C55.84 82.1569 55.7348 82.0592 55.2088 82.1794C52.5566 82.7806 49.8593 83.0587 47.1469 83.0587C42.0904 83.0662 37.1766 82.2095 32.4356 80.3985C28.9193 79.0609 25.6284 77.3401 22.6531 75.0331Z" fill="#EE8C2E"/>
<path d="M62.4818 88.1547C62.8951 90.2588 64.0972 91.9346 65.4271 93.5277C67.4707 95.9774 70.3108 97.2398 73.1434 98.4196C79.7853 101.193 83.6547 106.024 84.6615 113.178C84.8569 114.576 84.7892 115.959 84.8569 117.349C84.8944 118.175 84.7967 118.859 83.7148 118.882C82.5577 118.904 82.5127 118.13 82.4826 117.296C82.4075 115.117 82.137 112.968 81.5885 110.856C80.2962 105.889 76.9903 102.793 72.4071 100.832C70.0178 99.8098 67.6135 98.7879 65.5774 97.1121C62.9251 94.9329 61.0092 92.2352 59.9272 88.9588C60.5884 88.0946 61.49 87.9819 62.4818 88.1547Z" fill="#E0CCDD"/>
<path d="M62.4817 88.1562C61.6101 88.3666 60.7311 88.5544 59.9196 88.9527C59.4688 89.0654 58.9879 89.1105 58.5822 89.3059C56.5912 90.2678 53.9539 88.3365 54.9758 85.992C55.0359 85.8642 55.0434 85.7139 55.081 85.5787C57.7107 84.4816 60.3028 83.2943 62.6695 81.6861C62.8423 81.5734 62.9776 81.4006 63.1279 81.2578C63.8341 81.9041 64.5704 82.5278 65.2542 83.2041C66.7794 84.6995 66.3136 86.8036 64.3 87.555C63.7064 87.7804 63.0903 87.9608 62.4817 88.1562Z" fill="#EEA829"/>
<path d="M27.6345 12.5197C29.6406 11.3324 31.6692 10.2052 33.8706 9.40863C35.4635 8.83753 36.8159 9.12308 37.7551 10.3179C38.6116 11.4075 38.5816 13.2185 37.8002 14.4734C36.8685 15.9613 35.3583 16.6677 33.9458 17.5168C30.73 19.4631 27.7096 21.6348 25.4856 24.7609C24.8244 25.6927 23.8928 26.4517 23.0362 27.2407C21.6087 28.5632 19.4523 28.7511 18.2276 27.7141C16.8902 26.5869 16.7249 24.2349 17.7167 22.5666C19.6101 19.388 22.0745 16.7353 24.9296 14.4208C25.8012 13.737 26.7103 13.1208 27.6345 12.5197Z" fill="#F0BC5F"/>
<path d="M12.0666 35.2438C11.5557 33.2675 13.1786 30.8027 15.087 30.5697C17.0556 30.3218 18.5883 31.2686 19.0616 33.5154C19.5125 35.6571 18.0023 37.8889 16.0337 38.1519C14.0502 38.4225 12.3597 37.1825 12.0666 35.2438Z" fill="#F0BC5F"/>
</svg>
