<svg xmlns="http://www.w3.org/2000/svg" width="28" height="28" viewBox="0 0 28 28" fill="none">
<path d="M1.5 7.74995L7.75005 7.74993V6.18744H1.5V7.74995ZM1.5 21.8126H7.75005L7.75006 20.294L1.5 20.25V21.8126ZM9.31256 21.8126H15.5187V20.294L9.31256 20.294V21.8126ZM26.4465 23.7315L25.6418 20.7203L19.6505 22.334L20.4533 25.3448C20.6743 26.1739 21.5275 26.669 22.3527 26.4469L25.3454 25.6402C26.173 25.4161 26.6662 24.5616 26.4465 23.7315ZM22.0324 7.17378L16.0362 8.78512L19.2477 20.8311L25.2389 19.2178L22.0324 7.17378ZM20.8263 2.65519C20.6053 1.82608 19.7521 1.33096 18.9269 1.55313L15.9303 2.35978C15.1051 2.582 14.6124 3.43937 14.8336 4.26848L15.3453 6.18744H9.31256L9.31257 7.74995L15.5187 7.74998L15.5187 6.99997L15.5931 7.27942L21.5844 5.66564L20.8263 2.65519Z" fill="#ffffff"/>
<path opacity="0.4" d="M1.5 20.25L7.75005 20.25V7.74991H1.5V20.25ZM6.18753 1.5H3.01857C2.20215 1.5 1.5 2.20202 1.5 3.06237V6.14345L7.75005 6.14341L7.75008 3.06234C7.75005 2.20202 7.04692 1.5 6.18753 1.5ZM1.5 24.8936C1.5 25.7539 2.20215 26.4122 3.01857 26.4122H6.14359C7.00395 26.4122 7.66215 25.7105 7.66215 24.8936L7.75005 21.8125H1.5V24.8936ZM21.632 5.66591L15.6358 7.28116L16.0374 8.78654L22.0286 7.17324L21.632 5.66591ZM25.2404 19.2148L19.2492 20.8281L19.6506 22.3335L25.6418 20.7197L25.2404 19.2148ZM9.31256 20.25L15.5187 20.25V7.74991H9.31256V20.25ZM9.31256 24.8936C9.31256 25.7539 10.0147 26.4122 10.8751 26.4122H13.9561C14.8165 26.4122 15.5177 25.711 15.4747 24.8506V21.7246H9.26861L9.31256 24.8936ZM14.8351 4.26893C14.6605 3.61414 14.9406 2.95544 15.4679 2.59216C15.265 1.96422 14.6949 1.50035 14.0011 1.50035H10.92C10.0591 1.50035 9.35748 2.20202 9.35748 3.01892L9.31256 6.1874L15.3478 6.18742L14.8351 4.26893Z" fill="#ffffff"/>
</svg>