<svg xmlns="http://www.w3.org/2000/svg" width="28" height="28" viewBox="0 0 28 28" fill="none">
<path d="M21.1367 1.84187C22.2606 0.719376 24.0772 0.719376 25.2011 1.84187L26.1607 2.80357C27.2846 3.92588 27.2846 5.74561 26.1607 6.86793L24.6212 8.41259L19.592 3.38448L21.1367 1.84187ZM23.4614 9.57237L14.8708 18.1578C14.5578 18.476 14.1729 18.712 13.747 18.8557L9.18994 20.3747C8.70243 20.5184 8.26109 20.4055 7.92753 20.0309C7.5991 19.7435 7.4862 19.256 7.62989 18.8147L9.14889 14.2577C9.29258 13.8317 9.52864 13.4469 9.84681 13.1338L18.4323 4.54529L23.4614 9.57237Z" fill="#ffffff"/>
<path opacity="0.4" d="M1 8.93431C1 6.16829 3.20563 4.00781 5.9265 4.00781H10.853C11.7613 4.00781 12.4952 4.74319 12.4952 5.64998C12.4952 6.5583 11.7613 7.29214 10.853 7.29214H5.9265C5.01971 7.29214 4.28433 8.02599 4.28433 8.93431V22.0716C4.28433 22.98 5.01971 23.7138 5.9265 23.7138H19.0638C19.9721 23.7138 20.706 22.98 20.706 22.0716V17.1451C20.706 16.2368 21.4398 15.503 22.3482 15.503C23.2565 15.503 23.9903 16.2368 23.9903 17.1451V22.0716C23.9903 24.7915 21.7837 26.9981 19.0638 26.9981H5.9265C3.20563 26.9981 1 24.7915 1 22.0716V8.93431Z" fill="#ffffff"/>
</svg>