<svg xmlns="http://www.w3.org/2000/svg" width="190" height="112" viewBox="0 0 190 112" fill="none">
<g clip-path="url(#clip0_1552_707)">
<path d="M189.427 22.0823C189.658 22.312 189.658 22.6844 189.427 22.9142L185.667 26.6576C185.437 26.8874 185.062 26.8874 184.832 26.6576C184.601 26.4279 184.601 26.0555 184.832 25.8258L188.174 22.4982L184.832 19.1706C184.601 18.9409 184.601 18.5684 184.832 18.3387C185.063 18.109 185.437 18.109 185.667 18.3387L189.427 22.0823ZM0.91501 111.82C0.588715 111.82 0.324219 111.557 0.324219 111.231C0.32422 110.907 0.588739 110.643 0.915029 110.643L0.91501 111.82ZM92.8277 0.847494L93.0272 0.293906L92.8277 0.847494ZM189.009 23.0865C145.243 23.086 119.63 17.1369 105.678 11.4201C98.7088 8.56459 94.6186 5.75456 92.634 3.74689C92.1367 3.24348 91.76 2.77923 91.5039 2.36615C91.2567 1.9686 91.0823 1.55702 91.0785 1.17323C91.0766 0.970224 91.1234 0.749706 91.2605 0.554859C91.3999 0.356278 91.597 0.235978 91.8026 0.176063C92.1816 0.0656839 92.6184 0.147694 93.0272 0.293906L92.6278 1.40108C92.4723 1.34548 92.3508 1.31744 92.262 1.30672C92.1703 1.29569 92.1339 1.30545 92.1344 1.30521C92.1429 1.30275 92.1897 1.28443 92.2284 1.22931C92.2644 1.17792 92.2601 1.14235 92.2601 1.16275C92.2606 1.22576 92.3022 1.41482 92.5087 1.74745C92.7058 2.06456 93.0201 2.46006 93.4762 2.92172C95.3072 4.77433 99.2386 7.50957 106.127 10.3321C119.891 15.9715 145.337 21.9096 189.009 21.91V23.0865ZM93.0272 0.293906C96.218 1.43532 99.3463 4.07235 102.106 7.73781C104.871 11.411 107.297 16.1571 109.068 21.587C112.609 32.4453 113.55 46.0979 109.285 59.4832C100.729 86.334 71.3478 111.821 0.91501 111.82L0.915029 110.643C71.076 110.644 99.8213 85.2926 108.159 59.1274C112.34 46.0052 111.419 32.6057 107.944 21.9504C106.207 16.6234 103.836 11.9974 101.16 8.44341C98.479 4.88167 95.5222 2.43652 92.6278 1.40108L93.0272 0.293906Z" fill="#114232" stroke="#114232"/>
</g>
<defs fill="#000000">
<clipPath id="clip0_1552_707" fill="#000000">
<rect width="190" height="112" fill="white"/>
</clipPath>
</defs>
</svg>